<svg width="45" height="42" viewBox="0 0 45 42" fill="none" xmlns="http://www.w3.org/2000/svg">
<path d="M8.59954 20.3116V30.3466L3.00718 30.3489V20.3115L8.59954 20.3116ZM41.995 20.3116V30.3466L36.4026 30.3489V20.3115L41.995 20.3116ZM22.5015 4.94262e-07H22.499C12.1946 -0.00221315 3.84356 7.43152 3.84356 16.5989V17.6372L1.50261 17.635V17.6372H1.50012C1.10208 17.6372 0.721437 17.7766 0.440328 18.0268C0.15922 18.277 0 18.6179 0 18.9743V31.6861C0 32.0425 0.159214 32.3812 0.440328 32.6336C0.721443 32.8837 1.10457 33.0254 1.5026 33.0254L10.1027 33.0232C10.9336 33.0232 11.6053 32.4255 11.6053 31.6861V18.9743C11.6053 18.2349 10.9336 17.6372 10.1027 17.6372H6.85124V16.5989C6.85124 8.90842 13.8592 2.6744 22.5013 2.6744C31.1435 2.6744 38.1489 8.90842 38.1489 16.5989V17.6372L34.8974 17.635V17.6372H34.8949C34.4969 17.6372 34.1162 17.7766 33.8351 18.0268C33.554 18.277 33.3948 18.6179 33.3948 18.9743V31.6861C33.3948 32.0425 33.554 32.3812 33.8351 32.6336C34.1162 32.8837 34.4994 33.0254 34.8974 33.0254H36.8627L36.7433 33.218L36.3253 33.8002L35.8651 34.3581L35.3651 34.8872L34.8252 35.3875L34.2531 35.8546L33.6485 36.2885L33.0117 36.6848L32.3474 37.0456L31.6658 37.3622L30.9593 37.6389L30.2379 37.8758L29.5015 38.0706L28.7502 38.2233L27.989 38.3318L27.2228 38.396V38.3982L26.4541 38.4182L26.3073 38.4137C25.8496 37.6234 24.9217 37.081 23.8519 37.081C22.327 37.081 21.0906 38.1835 21.0906 39.5405C21.0906 40.8997 22.327 42 23.8519 42C24.7226 42 25.4988 41.6414 26.0063 41.0813L26.3993 41.0923H26.4964L27.3621 41.0702L27.4591 41.0636L28.3224 40.9905L28.4194 40.9816L29.2752 40.8577L29.3697 40.8422L30.2155 40.6717L30.3076 40.6496L31.141 40.4304L31.2305 40.4016L32.044 40.136L32.136 40.1028L32.9271 39.7906L33.0142 39.753L33.7829 39.3966L33.8675 39.3545L34.6163 38.9494L34.6984 38.9007L35.4149 38.4535L35.492 38.4026L36.1761 37.9133L36.2482 37.858L36.895 37.3311L36.9647 37.2691L37.5692 36.7068L37.6364 36.6426L38.1986 36.0471L38.2583 35.9785L38.7782 35.3498L38.833 35.2789L39.3031 34.6214L39.3554 34.5461L39.7758 33.8643L39.8206 33.7868L40.1937 33.0828L40.2211 33.0253L43.4974 33.023C44.3283 33.023 45 32.4253 45 31.6859V18.9742C45 18.2348 44.3283 17.637 43.4974 17.637H41.1564V16.5988C41.1564 7.43137 32.8032 4.94262e-07 22.5015 4.94262e-07Z" fill="black"/>
</svg>
