<svg width="63" height="54" viewBox="0 0 63 54" fill="none" xmlns="http://www.w3.org/2000/svg">
<g filter="url(#filter0_bd_61_74)">
<path d="M20.4842 6.72051C22.3575 6.72051 23.8761 5.21607 23.8761 3.36025C23.8761 1.50444 22.3575 0 20.4842 0C18.6109 0 17.0923 1.50444 17.0923 3.36025C17.0923 5.21607 18.6109 6.72051 20.4842 6.72051Z" fill="#D3A7E4"/>
<path d="M38.3094 14.5569C40.1827 14.5569 41.7013 13.0524 41.7013 11.1966C41.7013 9.3408 40.1827 7.83636 38.3094 7.83636C36.4361 7.83636 34.9175 9.3408 34.9175 11.1966C34.9175 13.0524 36.4361 14.5569 38.3094 14.5569Z" fill="white"/>
<path d="M25.7445 22.3202C27.6178 22.3202 29.1364 20.8157 29.1364 18.9599C29.1364 17.1041 27.6178 15.5997 25.7445 15.5997C23.8712 15.5997 22.3525 17.1041 22.3525 18.9599C22.3525 20.8157 23.8712 22.3202 25.7445 22.3202Z" fill="white"/>
<path d="M8.18636 31.1417C10.0597 31.1417 11.5783 29.6373 11.5783 27.7815C11.5783 25.9256 10.0597 24.4212 8.18636 24.4212C6.31305 24.4212 4.79443 25.9256 4.79443 27.7815C4.79443 29.6373 6.31305 31.1417 8.18636 31.1417Z" fill="white"/>
<path d="M22.0692 39.0231C23.9425 39.0231 25.4611 37.5186 25.4611 35.6628C25.4611 33.807 23.9425 32.3026 22.0692 32.3026C20.1959 32.3026 18.6772 33.807 18.6772 35.6628C18.6772 37.5186 20.1959 39.0231 22.0692 39.0231Z" fill="white"/>
<path d="M40.118 47C41.9913 47 43.5099 45.4956 43.5099 43.6397C43.5099 41.7839 41.9913 40.2795 40.118 40.2795C38.2447 40.2795 36.7261 41.7839 36.7261 43.6397C36.7261 45.4956 38.2447 47 40.118 47Z" fill="#D3A7E4"/>
<path d="M43.0321 1.28876H27.2428C26.0284 1.28876 25.0439 2.26403 25.0439 3.46709C25.0439 4.67015 26.0284 5.64542 27.2428 5.64542H43.0321C44.2465 5.64542 45.231 4.67015 45.231 3.46709C45.231 2.26403 44.2465 1.28876 43.0321 1.28876Z" fill="#D3A7E4"/>
<path d="M51.2059 9.01831H44.7384C43.524 9.01831 42.5396 9.99358 42.5396 11.1966C42.5396 12.3997 43.524 13.375 44.7384 13.375H51.2059C52.4203 13.375 53.4048 12.3997 53.4048 11.1966C53.4048 9.99358 52.4203 9.01831 51.2059 9.01831Z" fill="#D3A7E4"/>
<path d="M33.9783 11.1601C33.9772 11.7375 33.7452 12.2909 33.3331 12.6992C32.9209 13.1074 32.3623 13.3373 31.7795 13.3384H10.4874C10.3757 13.3385 10.2643 13.3301 10.154 13.3131H9.24181C8.78704 13.315 8.35153 13.4953 8.03062 13.8145C7.7097 14.1337 7.52953 14.5659 7.52953 15.0164V15.1008C7.52953 15.5523 7.71049 15.9853 8.03262 16.3047C8.35476 16.6241 8.79173 16.8037 9.24749 16.8041H19.1778C19.761 16.8041 20.3203 17.0336 20.7327 17.4421C21.145 17.8506 21.3767 18.4047 21.3767 18.9824C21.3767 19.5601 21.145 20.1142 20.7327 20.5227C20.3203 20.9312 19.761 21.1607 19.1778 21.1607H10.1469C9.33967 21.1607 8.54036 21.0032 7.79458 20.6972C7.0488 20.3912 6.37118 19.9426 5.80038 19.3772C5.22959 18.8117 4.77682 18.1404 4.46791 17.4016C4.159 16.6628 4 15.8709 4 15.0712C4 14.2716 4.159 13.4797 4.46791 12.7409C4.77682 12.0021 5.22959 11.3308 5.80038 10.7653C6.37118 10.1999 7.0488 9.75131 7.79458 9.44529C8.54036 9.13926 9.33967 8.98175 10.1469 8.98175C10.215 8.98175 10.2888 8.98175 10.3526 8.98175C10.3966 8.98175 10.442 8.98175 10.4874 8.98175H31.7795C32.3622 8.98323 32.9206 9.21321 33.3327 9.62141C33.7447 10.0296 33.9768 10.5828 33.9783 11.1601Z" fill="#D3A7E4"/>
<path d="M15.8241 33.6251H9.35658C8.14218 33.6251 7.15771 34.6003 7.15771 35.8034C7.15771 37.0065 8.14218 37.9817 9.35658 37.9817H15.8241C17.0385 37.9817 18.0229 37.0065 18.0229 35.8034C18.0229 34.6003 17.0385 33.6251 15.8241 33.6251Z" fill="#D3A7E4"/>
<path d="M33.2265 41.3209H17.5011C16.2867 41.3209 15.3022 42.2961 15.3022 43.4992C15.3022 44.7023 16.2867 45.6775 17.5011 45.6775H33.2265C34.4409 45.6775 35.4254 44.7023 35.4254 43.4992C35.4254 42.2961 34.4409 41.3209 33.2265 41.3209Z" fill="white"/>
<path d="M54.5397 16.7816H32.2545C31.0401 16.7816 30.0557 17.7569 30.0557 18.9599C30.0557 20.163 31.0401 21.1383 32.2545 21.1383H54.5397C55.7541 21.1383 56.7385 20.163 56.7385 18.9599C56.7385 17.7569 55.7541 16.7816 54.5397 16.7816Z" fill="white"/>
<path d="M59.0001 31.6926C59.0001 32.4923 58.8411 33.2842 58.5322 34.023C58.2233 34.7618 57.7705 35.4331 57.1998 35.9986C56.629 36.564 55.9513 37.0126 55.2056 37.3186C54.4598 37.6246 53.6605 37.7821 52.8532 37.7821H28.8303C28.2471 37.7821 27.6878 37.5526 27.2755 37.1441C26.8631 36.7356 26.6314 36.1815 26.6314 35.6038C26.6314 35.0261 26.8631 34.472 27.2755 34.0635C27.6878 33.655 28.2471 33.4255 28.8303 33.4255H52.7696C52.8773 33.4256 52.985 33.4336 53.0916 33.4494H53.7583C53.9841 33.4495 54.2077 33.4057 54.4164 33.3202C54.6251 33.2348 54.8147 33.1095 54.9745 32.9515C55.1343 32.7934 55.2611 32.6058 55.3477 32.3992C55.4343 32.1926 55.4789 31.9711 55.4791 31.7475V31.6631C55.4791 31.2116 55.2982 30.7786 54.976 30.4592C54.6539 30.1398 54.2169 29.9602 53.7612 29.9598H14.7902C14.207 29.9598 13.6477 29.7303 13.2353 29.3218C12.823 28.9133 12.5913 28.3592 12.5913 27.7815C12.5913 27.2038 12.823 26.6497 13.2353 26.2412C13.6477 25.8326 14.207 25.6031 14.7902 25.6031H52.8532C53.6605 25.6031 54.4598 25.7607 55.2056 26.0667C55.9513 26.3727 56.629 26.8213 57.1998 27.3867C57.7705 27.9522 58.2233 28.6235 58.5322 29.3623C58.8411 30.1011 59.0001 30.893 59.0001 31.6926Z" fill="#D3A7E4"/>
</g>
<defs>
<filter id="filter0_bd_61_74" x="0" y="-4" width="63" height="59" filterUnits="userSpaceOnUse" color-interpolation-filters="sRGB">
<feFlood flood-opacity="0" result="BackgroundImageFix"/>
<feGaussianBlur in="BackgroundImageFix" stdDeviation="2"/>
<feComposite in2="SourceAlpha" operator="in" result="effect1_backgroundBlur_61_74"/>
<feColorMatrix in="SourceAlpha" type="matrix" values="0 0 0 0 0 0 0 0 0 0 0 0 0 0 0 0 0 0 127 0" result="hardAlpha"/>
<feOffset dy="4"/>
<feGaussianBlur stdDeviation="2"/>
<feComposite in2="hardAlpha" operator="out"/>
<feColorMatrix type="matrix" values="0 0 0 0 0 0 0 0 0 0 0 0 0 0 0 0 0 0 0.25 0"/>
<feBlend mode="normal" in2="effect1_backgroundBlur_61_74" result="effect2_dropShadow_61_74"/>
<feBlend mode="normal" in="SourceGraphic" in2="effect2_dropShadow_61_74" result="shape"/>
</filter>
</defs>
</svg>
