<svg width="375" height="52" viewBox="0 0 375 52" fill="none" xmlns="http://www.w3.org/2000/svg">
<path d="M1.92205 15.9849C3.16666 12.9384 4.96851 10.1472 7.23649 7.75216C9.50266 5.37984 12.2096 3.46535 15.2082 2.11416C18.3265 0.690946 21.7232 -0.0299373 25.155 0.00317507C28.604 -0.039656 32.0205 0.66889 35.1639 2.07894C38.1844 3.44159 40.9213 5.35392 43.233 7.71699C45.5458 10.089 47.3719 12.8852 48.6094 15.9497C49.8959 19.1353 50.5573 22.5358 50.558 25.968C50.564 29.3496 49.9019 32.6994 48.6094 35.8279C47.3359 38.8974 45.5145 41.7133 43.233 44.1398C40.9213 46.5029 38.1844 48.4152 35.1639 49.7779C32.0261 51.2136 28.6098 51.9491 25.155 51.9328C21.7231 51.9491 18.3297 51.2133 15.217 49.7779C12.2185 48.4267 9.51152 46.5122 7.24535 44.1398C2.62037 39.1995 0.03426 32.7133 0 25.968C0.000905598 22.5497 0.653057 19.1624 1.92205 15.9849ZM41.4438 18.9578C40.5883 16.7984 39.3459 14.8107 37.7768 13.0911C36.1963 11.4511 34.322 10.1178 32.2498 9.15944C30.092 8.18269 27.7478 7.67872 25.3765 7.68178C23.0127 7.65177 20.6705 8.13197 18.512 9.08912C16.3941 10.0271 14.4943 11.3896 12.9318 13.0911C11.3407 14.8075 10.0745 16.7949 9.19398 18.9578C8.24143 21.1823 7.75908 23.5772 7.7768 25.9944C7.76269 28.3843 8.22008 30.7539 9.12312 32.9693C9.99714 35.1329 11.2641 37.1185 12.8609 38.8273C14.4046 40.5089 16.2879 41.8485 18.388 42.7589C20.5154 43.7419 22.8351 44.2465 25.1816 44.2366C27.5756 44.2385 29.9427 43.7348 32.1258 42.7589C34.2491 41.8527 36.1587 40.5167 37.7325 38.8361C39.3235 37.1229 40.5898 35.1384 41.4703 32.9781C42.3704 30.7621 42.8247 28.3926 42.8078 26.0032C42.8105 23.5898 42.3474 21.1982 41.4438 18.9578Z" fill="white"/>
<path d="M103.031 0H111.171V51.8945H105.121L82.4816 17.7673V51.8945H74.4214V0H80.2407L103.031 34.4175V0Z" fill="white"/>
<path d="M143.333 25.5074H161.331V33.2213H143.333V51.9912H135.485V0H166.787V7.71382H143.333V25.5074Z" fill="white"/>
<path d="M190.824 0H198.592V51.8945H190.824V0Z" fill="white"/>
<path d="M260.466 29.1166C261.352 31.0499 261.811 33.1493 261.812 35.2736C261.842 37.5922 261.304 39.8833 260.244 41.9495C259.165 43.973 257.721 45.7826 255.984 47.2885C254.165 48.7837 252.088 49.9399 249.855 50.7012C247.507 51.5366 245.032 51.965 242.538 51.9678H223.265V0.00295928H241.413C243.463 -0.0377823 245.498 0.342541 247.392 1.12003C249.007 1.80108 250.476 2.78001 251.723 4.00498C252.926 5.17159 253.891 6.55721 254.567 8.08618C255.221 9.56596 255.599 11.1515 255.683 12.7655C255.788 14.3226 255.586 15.885 255.089 17.3656C254.579 18.8878 253.735 20.2786 252.618 21.438C253.442 21.8092 254.24 22.2323 255.01 22.7046C255.532 23.074 256.134 23.5841 256.878 24.1822C258.389 25.5773 259.608 27.2539 260.466 29.1166ZM243.734 19.1775C245.035 18.893 246.195 18.1659 247.014 17.1219C247.832 16.0779 248.257 14.7827 248.216 13.4603C248.292 12.885 248.215 12.2999 247.995 11.7628C247.803 11.2616 247.551 10.786 247.242 10.3467C246.697 9.60295 246.011 8.97245 245.222 8.4908C244.346 7.96986 243.337 7.71312 242.317 7.75194H231.033V19.1863L243.734 19.1775ZM247.02 43.5064C248.345 43.118 249.585 42.4887 250.678 41.6504C251.691 40.8963 252.53 39.9369 253.141 38.8359C253.736 37.7583 254.041 36.5465 254.026 35.3176C254.044 34.2108 253.785 33.117 253.274 32.1336C252.734 31.163 252.057 30.2744 251.263 29.4949C250.362 28.7332 249.354 28.1078 248.269 27.6389C247.056 27.1298 245.772 26.8065 244.46 26.6802H231.112V44.2716H242.538C244.066 44.2835 245.584 44.0243 247.02 43.5064Z" fill="white"/>
<path d="M293.041 25.4019H311.19V33.1949H293.041V44.1718H316.567V51.9648H285.282V0H316.575V7.71382H293.041V25.4019Z" fill="white"/>
<path d="M355.611 39.7212H347.462V51.9648H339.667V0H354.008C356.701 0.000462394 359.368 0.52956 361.855 1.55685C364.3 2.64932 366.566 4.09905 368.578 5.85789C370.514 7.63622 372.107 9.74934 373.281 12.094C374.407 14.4845 374.993 17.09 375 19.7287C375.02 22.7081 374.357 25.653 373.06 28.3396C371.725 31.0402 369.812 33.418 367.453 35.3058L365.354 37.0474L374.096 52H364.946L357.861 39.6861L355.611 39.7212ZM359.791 31.0399C361.205 30.404 362.494 29.5257 363.6 28.4452C364.721 27.3375 365.622 26.0307 366.257 24.5927C366.93 23.1248 367.263 21.5259 367.232 19.9134C367.238 18.3148 366.938 16.7296 366.346 15.2429C365.724 13.7849 364.838 12.4523 363.733 11.3112C362.614 10.198 361.296 9.30296 359.845 8.67252C358.339 8.01138 356.708 7.68136 355.062 7.70502H347.444V17.7673L347.515 32.0075H355.062C356.69 32.0235 358.302 31.6936 359.791 31.0399Z" fill="white"/>
</svg>
