<svg xmlns="http://www.w3.org/2000/svg" width="24" height="24" viewBox="0 0 30 30" fill="none" stroke="white" stroke-width="1" stroke-linecap="round" stroke-linejoin="round" class="feather feather-package">
<defs>
    <filter id="dropShadow" x="-50%" y="-50%" width="200%" height="200%">
      <feGaussianBlur in="SourceAlpha" stdDeviation="2.5"/> <!-- Standard deviation is how much to blur -->
      <feOffset dx="3" dy="3" result="offsetblur"/> <!-- How much to offset -->
      <feMerge> 
        <feMergeNode/> <!-- This contains the offset blurred image -->
        <feMergeNode in="SourceGraphic"/> <!-- This contains the element that the filter is applied to -->
      </feMerge>
    </filter>
  </defs>
<g transform="scale(0.75) translate(8, 8)">
    <path d="M22 16.92v3a2 2 0 0 1-2.18 2 19.79 19.79 0 0 1-8.63-3.07 19.5 19.5 0 0 1-6-6 19.79 19.79 0 0 1-3.07-8.67A2 2 0 0 1 4.11 2h3a2 2 0 0 1 2 1.72 12.84 12.84 0 0 0 .7 2.81 2 2 0 0 1-.45 2.11L8.09 9.91a16 16 0 0 0 6 6l1.27-1.27a2 2 0 0 1 2.11-.45 12.84 12.84 0 0 0 2.81.7A2 2 0 0 1 22 16.92z" style="filter: url(#dropShadow);"></path>
</g>

</svg>